<svg width="48" height="48" viewBox="0 0 48 48" fill="none" xmlns="http://www.w3.org/2000/svg">
<circle cx="24" cy="24" r="24" fill="white"/>
<path d="M24 17.7595L23.4973 18.2433C23.6288 18.38 23.8103 18.4572 24 18.4572C24.1897 18.4572 24.3712 18.38 24.5027 18.2433L24 17.7595ZM21.6056 29.6863C20.1957 28.5748 18.654 27.4894 17.431 26.1122C16.2318 24.7619 15.3953 23.1864 15.3953 21.1423H14C14 23.6218 15.033 25.5134 16.3876 27.0387C17.7184 28.5371 19.4147 29.7358 20.7418 30.7821L21.6056 29.6863ZM15.3953 21.1423C15.3953 19.1415 16.5259 17.4636 18.0692 16.7582C19.5684 16.0728 21.5829 16.2543 23.4973 18.2433L24.5027 17.2757C22.2312 14.9157 19.5945 14.5267 17.4891 15.4891C15.4276 16.4314 14 18.6194 14 21.1423H15.3953ZM20.7418 30.7821C21.2183 31.1577 21.7298 31.5583 22.2482 31.8611C22.7664 32.1639 23.3578 32.4101 24 32.4101V31.0147C23.712 31.0147 23.3731 30.9024 22.9522 30.6564C22.5314 30.4105 22.095 30.072 21.6056 29.6863L20.7418 30.7821ZM27.2582 30.7821C28.5853 29.7358 30.2817 28.5371 31.6124 27.0387C32.967 25.5134 34 23.6218 34 21.1423H32.6047C32.6047 23.1864 31.7682 24.7619 30.569 26.1122C29.346 27.4894 27.8043 28.5748 26.3944 29.6863L27.2582 30.7821ZM34 21.1423C34 18.6194 32.5724 16.4314 30.5109 15.4891C28.4055 14.5267 25.7688 14.9157 23.4973 17.2757L24.5027 18.2433C26.417 16.2543 28.4315 16.0728 29.9308 16.7582C31.474 17.4636 32.6047 19.1415 32.6047 21.1423H34ZM26.3944 29.6863C25.905 30.072 25.4686 30.4105 25.0478 30.6564C24.6269 30.9024 24.288 31.0147 24 31.0147V32.4101C24.6422 32.4101 25.2336 32.1639 25.7518 31.8611C26.2702 31.5583 26.7817 31.1577 27.2582 30.7821L26.3944 29.6863Z" fill="#656565"/>
</svg>
