<svg width="25" height="24" viewBox="0 0 25 24" fill="none" xmlns="http://www.w3.org/2000/svg">
<path fill-rule="evenodd" clip-rule="evenodd" d="M8.27128 18.0977C7.86717 18.0977 7.53957 18.4253 7.53957 18.8294C7.53957 19.2335 7.86717 19.5611 8.27128 19.5611C8.67538 19.5611 9.00298 19.2335 9.00298 18.8294C9.00298 18.4253 8.67538 18.0977 8.27128 18.0977ZM6.07617 18.8294C6.07617 17.6171 7.05894 16.6343 8.27128 16.6343C9.48361 16.6343 10.4664 17.6171 10.4664 18.8294C10.4664 20.0417 9.48361 21.0245 8.27128 21.0245C7.05894 21.0245 6.07617 20.0417 6.07617 18.8294Z" fill="#656565"/>
<path fill-rule="evenodd" clip-rule="evenodd" d="M17.0515 18.0977C16.6474 18.0977 16.3198 18.4252 16.3198 18.8294C16.3198 19.2335 16.6475 19.5611 17.0515 19.5611C17.4556 19.5611 17.7833 19.2335 17.7833 18.8294C17.7833 18.4252 17.4557 18.0977 17.0515 18.0977ZM14.8564 18.8294C14.8564 17.617 15.8393 16.6343 17.0515 16.6343C18.2638 16.6343 19.2467 17.617 19.2467 18.8294C19.2467 20.0417 18.2638 21.0245 17.0515 21.0245C15.8393 21.0245 14.8564 20.0417 14.8564 18.8294Z" fill="#656565"/>
<path fill-rule="evenodd" clip-rule="evenodd" d="M2.21545 2.4892C2.34949 2.10797 2.7672 1.90758 3.14843 2.04162L3.40325 2.13122C3.40325 2.13122 3.40326 2.13122 3.40325 2.13122C3.41635 2.13582 3.42942 2.14042 3.44244 2.14499C4.04394 2.35644 4.5548 2.53603 4.95684 2.73329C5.38672 2.94422 5.75535 3.20406 6.0326 3.60977C6.30769 4.01235 6.42128 4.45402 6.47369 4.93829C6.47745 4.97296 6.48092 5.00822 6.48412 5.04408H7.78374C8.18784 5.04408 8.51544 5.37167 8.51544 5.77578C8.51544 6.17988 8.18784 6.50748 7.78374 6.50748H6.52333C6.52334 6.54875 6.52334 6.59046 6.52334 6.63259L6.52334 9.32697C6.52334 10.7797 6.54089 11.6663 6.64934 12.2995C6.74875 12.8799 6.91723 13.2025 7.2296 13.532C7.49549 13.8124 7.8639 13.9921 8.56125 14.091C9.28385 14.1935 10.2429 14.1952 11.6252 14.1952H12.6617C13.0659 14.1952 13.3934 14.5228 13.3934 14.9269C13.3934 15.331 13.0659 15.6586 12.6617 15.6586H11.5692C10.2563 15.6586 9.19309 15.6587 8.35579 15.5399C7.48142 15.4159 6.74699 15.1499 6.16762 14.5389C5.63473 13.9767 5.3497 13.38 5.20694 12.5466C5.07323 11.7659 5.05993 10.7441 5.05993 9.32697V6.67173C5.05993 5.94984 5.05894 5.4667 5.01879 5.09578C4.98042 4.74129 4.91242 4.5643 4.82436 4.43543M2.21545 2.4892C2.08141 2.87043 2.2818 3.28814 2.66303 3.42218L2.21545 2.4892ZM2.66303 3.42218L2.91787 3.51178L2.66303 3.42218ZM2.91787 3.51178C3.55262 3.73494 3.97533 3.88476 4.28797 4.03528C4.29612 4.03921 4.3042 4.04314 4.31221 4.04707M4.31221 4.04707C4.60804 4.19222 4.73845 4.30972 4.82436 4.43543L4.31221 4.04707ZM20.9184 5.32297C21.2116 5.42598 21.5339 5.59467 21.7631 5.89266C22.1356 6.37692 22.2007 6.94081 22.1654 7.5127C22.1318 8.05727 21.9967 8.73433 21.836 9.53925L21.8259 9.58994L21.8249 9.59444L21.3373 11.96L21.3285 12.003C21.1824 12.712 21.0595 13.3084 20.9009 13.7788C20.7328 14.2778 20.4996 14.7164 20.0835 15.0555C19.6674 15.3946 19.1908 15.5344 18.6681 15.5984C18.1755 15.6587 17.5667 15.6586 16.8431 15.6586L16.7987 15.6586C16.3946 15.6586 16.067 15.331 16.067 14.9269C16.067 14.5228 16.3946 14.1952 16.7987 14.1952C17.5785 14.1952 18.0971 14.1939 18.4904 14.1458C18.8637 14.1001 19.0369 14.0206 19.1591 13.9211C19.2812 13.8215 19.3941 13.6679 19.5142 13.3115C19.6407 12.936 19.7467 12.4284 19.9041 11.6646L20.3908 9.30351C20.3909 9.3027 20.3911 9.3019 20.3912 9.3011C20.5645 8.43302 20.6781 7.85528 20.7048 7.42258C20.7302 7.01143 20.6656 6.86778 20.6058 6.78834C20.6025 6.78564 20.5623 6.74896 20.4333 6.70362C20.2817 6.65034 20.0659 6.60556 19.7775 6.57332C19.1972 6.50846 18.4619 6.50748 17.6264 6.50748H11.7091C11.305 6.50748 10.9774 6.17988 10.9774 5.77578C10.9774 5.37167 11.305 5.04408 11.7091 5.04408L17.6568 5.04408C18.4555 5.04406 19.2698 5.04405 19.9401 5.11898C20.2813 5.15712 20.6194 5.2179 20.9184 5.32297Z" fill="#656565"/>
<path d="M4.28797 4.03528L2.21545 2.4892L2.66303 3.42218L2.91787 3.51178C3.55262 3.73494 3.97533 3.88476 4.28797 4.03528Z" fill="#656565"/>
</svg>
