<svg width="23" height="24" viewBox="0 0 23 24" fill="none" xmlns="http://www.w3.org/2000/svg">
<path d="M11.3554 2.25C7.82888 2.25 4.96777 5.12766 4.96777 8.67188C4.96777 12.75 9.22616 19.2127 10.7898 21.4448C10.8547 21.5391 10.9398 21.6157 11.0381 21.6686C11.1363 21.7215 11.2451 21.749 11.3554 21.749C11.4656 21.749 11.5744 21.7215 11.6727 21.6686C11.771 21.6157 11.856 21.5391 11.9209 21.4448C13.4846 19.2136 17.7429 12.7533 17.7429 8.67188C17.7429 5.12766 14.8818 2.25 11.3554 2.25Z" stroke="#E8E8E8" stroke-width="1.5" stroke-linecap="round" stroke-linejoin="round"/>
<path d="M11.3558 11.25C12.5317 11.25 13.485 10.2426 13.485 9C13.485 7.75736 12.5317 6.75 11.3558 6.75C10.1798 6.75 9.22656 7.75736 9.22656 9C9.22656 10.2426 10.1798 11.25 11.3558 11.25Z" stroke="#E8E8E8" stroke-width="1.5" stroke-linecap="round" stroke-linejoin="round"/>
</svg>
