<svg width="15" height="22" viewBox="0 0 15 22" fill="none" xmlns="http://www.w3.org/2000/svg">
<path d="M7.35536 1.25C3.82888 1.25 0.967773 4.12766 0.967773 7.67188C0.967773 11.75 5.22616 18.2127 6.78979 20.4448C6.85469 20.5391 6.93976 20.6157 7.03805 20.6686C7.13634 20.7215 7.24507 20.749 7.35536 20.749C7.46565 20.749 7.57437 20.7215 7.67266 20.6686C7.77095 20.6157 7.85602 20.5391 7.92092 20.4448C9.48455 18.2136 13.7429 11.7533 13.7429 7.67188C13.7429 4.12766 10.8818 1.25 7.35536 1.25Z" stroke="#E8E8E8" stroke-width="1.5" stroke-linecap="round" stroke-linejoin="round"/>
<path d="M7.35576 10.25C8.53168 10.25 9.48495 9.24264 9.48495 8C9.48495 6.75736 8.53168 5.75 7.35576 5.75C6.17984 5.75 5.22656 6.75736 5.22656 8C5.22656 9.24264 6.17984 10.25 7.35576 10.25Z" stroke="#E8E8E8" stroke-width="1.5" stroke-linecap="round" stroke-linejoin="round"/>
</svg>
