<svg width="48" height="48" viewBox="0 0 48 48" fill="none" xmlns="http://www.w3.org/2000/svg">
<circle cx="24" cy="24" r="24" fill="white"/>
<g clip-path="url(#clip0_513_383)">
<path fill-rule="evenodd" clip-rule="evenodd" d="M22.5997 31.2543C17.6464 31.2543 13.6301 27.309 13.6301 22.4344C13.6301 17.5597 17.6464 13.6065 22.5997 13.6065C27.5531 13.6065 31.5694 17.5597 31.5694 22.4344C31.5694 27.309 27.5531 31.2543 22.5997 31.2543ZM36.9543 35.8219L30.4503 29.4195C32.1537 27.5689 33.1995 25.1276 33.1995 22.4344C33.1995 16.6699 28.454 12 22.5997 12C16.7455 12 12 16.6699 12 22.4344C12 28.191 16.7455 32.8609 22.5997 32.8609C25.1292 32.8609 27.4492 31.9868 29.2715 30.5299L35.8022 36.9558C36.1203 37.2708 36.6361 37.2708 36.9543 36.9558C37.2732 36.6487 37.2732 36.1369 36.9543 35.8219ZM26.5837 21.7729H23.4361V18.6229C23.4361 18.1819 23.0841 17.8354 22.6494 17.8354C22.2155 17.8354 21.8626 18.1819 21.8626 18.6229V21.7729H18.7166C18.2827 21.7729 17.9299 21.9146 17.9299 22.3478C17.9299 22.7888 18.2827 23.3479 18.7166 23.3479H21.8626V26.4979C21.8626 26.9389 22.2155 27.2854 22.6494 27.2854C23.0841 27.2854 23.4361 26.9389 23.4361 26.4979V23.3479H26.5837C27.0176 23.3479 27.3704 22.9935 27.3704 22.5604C27.3704 22.1273 27.0176 21.7729 26.5837 21.7729Z" fill="#656565"/>
</g>
<defs>
<clipPath id="clip0_513_383">
<rect width="25.2" height="25.2" fill="white" transform="translate(12 12)"/>
</clipPath>
</defs>
</svg>
