<svg width="18" height="18" viewBox="0 0 18 18" fill="none" xmlns="http://www.w3.org/2000/svg">
<path fill-rule="evenodd" clip-rule="evenodd" d="M7.85304 13.4044C4.57616 13.4044 1.91975 10.7944 1.91975 7.56957C1.91975 4.34478 4.57616 1.72954 7.85304 1.72954C11.1299 1.72954 13.7869 4.34478 13.7869 7.56957C13.7869 10.7944 11.1299 13.4044 7.85304 13.4044ZM17.3492 16.426L13.0466 12.1906C14.1729 10.9663 14.8653 9.35128 14.8653 7.56957C14.8653 3.75609 11.7259 0.666748 7.85304 0.666748C3.98017 0.666748 0.84082 3.75609 0.84082 7.56957C0.84082 11.3778 3.98017 14.4672 7.85304 14.4672C9.52639 14.4672 11.0612 13.8889 12.2667 12.9251L16.5866 17.1762C16.7975 17.3846 17.1388 17.3846 17.3492 17.1762C17.5602 16.973 17.5602 16.6344 17.3492 16.426Z" fill="#656565"/>
</svg>
