<svg width="25" height="24" viewBox="0 0 25 24" fill="none" xmlns="http://www.w3.org/2000/svg">
<path d="M12.2936 12.78C12.2236 12.77 12.1336 12.77 12.0536 12.78C10.2936 12.72 8.89355 11.28 8.89355 9.50998C8.89355 7.69998 10.3536 6.22998 12.1736 6.22998C13.9836 6.22998 15.4536 7.69998 15.4536 9.50998C15.4436 11.28 14.0536 12.72 12.2936 12.78Z" stroke="#656565" stroke-width="1.5" stroke-linecap="round" stroke-linejoin="round"/>
<path d="M18.9136 19.3801C17.1336 21.0101 14.7736 22.0001 12.1736 22.0001C9.57359 22.0001 7.21359 21.0101 5.43359 19.3801C5.53359 18.4401 6.13359 17.5201 7.20359 16.8001C9.94359 14.9801 14.4236 14.9801 17.1436 16.8001C18.2136 17.5201 18.8136 18.4401 18.9136 19.3801Z" stroke="#656565" stroke-width="1.5" stroke-linecap="round" stroke-linejoin="round"/>
<path d="M12.1738 22C17.6966 22 22.1738 17.5228 22.1738 12C22.1738 6.47715 17.6966 2 12.1738 2C6.65098 2 2.17383 6.47715 2.17383 12C2.17383 17.5228 6.65098 22 12.1738 22Z" stroke="#656565" stroke-width="1.5" stroke-linecap="round" stroke-linejoin="round"/>
</svg>
