<svg width="25" height="24" viewBox="0 0 25 24" fill="none" xmlns="http://www.w3.org/2000/svg">
<path d="M12.1738 5.75941L11.6711 6.24322C11.8027 6.37987 11.9842 6.45708 12.1738 6.45708C12.3635 6.45708 12.545 6.37987 12.6765 6.24322L12.1738 5.75941ZM9.77946 17.6862C8.36954 16.5747 6.82785 15.4893 5.6048 14.1121C4.40566 12.7618 3.56918 11.1863 3.56918 9.14217H2.17383C2.17383 11.6217 3.20685 13.5133 4.56147 15.0386C5.89218 16.5371 7.5885 17.7358 8.91561 18.782L9.77946 17.6862ZM3.56918 9.14217C3.56918 7.14136 4.69975 5.46349 6.243 4.75807C7.74227 4.07275 9.75677 4.25424 11.6711 6.24322L12.6765 5.27559C10.405 2.91558 7.76833 2.52662 5.66291 3.48902C3.60147 4.4313 2.17383 6.61931 2.17383 9.14217H3.56918ZM8.91561 18.782C9.39211 19.1576 9.90363 19.5582 10.422 19.8611C10.9402 20.1638 11.5316 20.41 12.1738 20.41V19.0146C11.8858 19.0146 11.5469 18.9024 11.126 18.6563C10.7053 18.4104 10.2688 18.0719 9.77946 17.6862L8.91561 18.782ZM15.4321 18.782C16.7591 17.7358 18.4555 16.5371 19.7862 15.0386C21.1408 13.5133 22.1738 11.6217 22.1738 9.14217H20.7785C20.7785 11.1863 19.942 12.7618 18.7429 14.1121C17.5198 15.4893 15.9781 16.5747 14.5682 17.6862L15.4321 18.782ZM22.1738 9.14217C22.1738 6.61931 20.7462 4.4313 18.6847 3.48902C16.5793 2.52662 13.9427 2.91558 11.6711 5.27559L12.6765 6.24322C14.5909 4.25424 16.6054 4.07275 18.1046 4.75807C19.6479 5.46349 20.7785 7.14136 20.7785 9.14217H22.1738ZM14.5682 17.6862C14.0789 18.0719 13.6424 18.4104 13.2216 18.6563C12.8007 18.9024 12.4618 19.0146 12.1738 19.0146V20.41C12.8161 20.41 13.4074 20.1638 13.9256 19.8611C14.4441 19.5582 14.9555 19.1576 15.4321 18.782L14.5682 17.6862Z" fill="#656565"/>
</svg>
